<svg xmlns="http://www.w3.org/2000/svg" viewBox="0 0 302 86"><defs><style>.cls-1{fill:#fff;stroke:#ca7cd8;stroke-width:4px;}.cls-2{fill:none;}</style></defs><g id="Layer_2" data-name="Layer 2"><g id="Layer_1-2" data-name="Layer 1"><g id="Rectangle_2" data-name="Rectangle 2"><path class="cls-1" d="M39.2,17h217a29.5,29.5,0,0,1,29.5,29.5h0A29.5,29.5,0,0,1,256.2,76H39.2A29.5,29.5,0,0,1,9.7,46.5h0A29.5,29.5,0,0,1,39.2,17Z"/></g><g id="Rectangle_2-2" data-name="Rectangle 2"><path class="cls-1" d="M46.82,9h217a29.5,29.5,0,0,1,29.5,29.5h0A29.5,29.5,0,0,1,263.82,68h-217a29.5,29.5,0,0,1-29.5-29.5h0A29.5,29.5,0,0,1,46.82,9Z"/></g><rect class="cls-2" width="302" height="86"/></g></g></svg>