<svg xmlns="http://www.w3.org/2000/svg" viewBox="0 0 302 86"><defs><style>.cls-1,.cls-3{fill:#fff;}.cls-2,.cls-4{fill:none;}.cls-2,.cls-3{stroke:#c50ae6;stroke-width:4px;}</style></defs><g id="Layer_2" data-name="Layer 2"><g id="Layer_1-2" data-name="Layer 1"><g id="Rectangle_2" data-name="Rectangle 2"><path class="cls-1" d="M41.14,17h217a31.5,31.5,0,0,1,31.5,31.5h0A31.5,31.5,0,0,1,258.14,80h-217A31.5,31.5,0,0,1,9.64,48.5h0A31.5,31.5,0,0,1,41.14,17Z"/><path class="cls-2" d="M39.14,17h217a29.5,29.5,0,0,1,29.5,29.5h0A29.5,29.5,0,0,1,256.14,76h-217A29.5,29.5,0,0,1,9.64,46.5h0A29.5,29.5,0,0,1,39.14,17Z"/></g><g id="Rectangle_2-2" data-name="Rectangle 2"><path class="cls-3" d="M46.77,9h217a29.5,29.5,0,0,1,29.5,29.5h0A29.5,29.5,0,0,1,263.77,68h-217a29.5,29.5,0,0,1-29.5-29.5h0A29.5,29.5,0,0,1,46.77,9Z"/></g><rect class="cls-4" width="302" height="86"/></g></g></svg>