<svg xmlns="http://www.w3.org/2000/svg" viewBox="0 0 1082 1082"><defs><style>.cls-1,.cls-10,.cls-3,.cls-6,.cls-7,.cls-9{fill:none;stroke-miterlimit:10;}.cls-1,.cls-3{stroke:#000;}.cls-1{stroke-width:2px;}.cls-2{fill:#66e8e2;}.cls-10,.cls-3,.cls-6,.cls-7,.cls-9{stroke-width:10px;}.cls-4{fill:#ed4850;}.cls-5{fill:#f9eb32;}.cls-6{stroke:#ed4850;}.cls-7{stroke:#3968cb;}.cls-8{fill:#3968cb;}.cls-9{stroke:#f9eb32;}.cls-10{stroke:#c50ae6;}</style></defs><g id="Layer_2" data-name="Layer 2"><g id="Layer_3" data-name="Layer 3"><rect class="cls-1" x="1" y="1" width="1080" height="1080"/><line class="cls-1" x1="1" y1="982.82" x2="1081" y2="982.82"/><line class="cls-1" x1="1" y1="884.64" x2="1081" y2="884.64"/><line class="cls-1" x1="1" y1="786.45" x2="1081" y2="786.45"/><line class="cls-1" x1="1" y1="688.27" x2="1081" y2="688.27"/><line class="cls-1" x1="1" y1="590.09" x2="1081" y2="590.09"/><line class="cls-1" x1="1" y1="491.91" x2="1081" y2="491.91"/><line class="cls-1" x1="1" y1="393.73" x2="1081" y2="393.73"/><line class="cls-1" x1="1" y1="295.55" x2="1081" y2="295.55"/><line class="cls-1" x1="1" y1="197.36" x2="1081" y2="197.36"/><line class="cls-1" x1="1" y1="99.18" x2="1081" y2="99.18"/><line class="cls-1" x1="982.82" y1="1" x2="982.82" y2="1081"/><line class="cls-1" x1="884.64" y1="1" x2="884.64" y2="1081"/><line class="cls-1" x1="786.45" y1="1" x2="786.45" y2="1081"/><line class="cls-1" x1="688.27" y1="1" x2="688.27" y2="1081"/><line class="cls-1" x1="590.09" y1="1" x2="590.09" y2="1081"/><line class="cls-1" x1="491.91" y1="1" x2="491.91" y2="1081"/><line class="cls-1" x1="393.73" y1="1" x2="393.73" y2="1081"/><line class="cls-1" x1="295.55" y1="1" x2="295.55" y2="1081"/><line class="cls-1" x1="197.36" y1="1" x2="197.36" y2="1081"/><line class="cls-1" x1="99.18" y1="1" x2="99.18" y2="1081"/><rect class="cls-2" x="130.09" y="168.17" width="148" height="148" transform="matrix(0.84, -0.54, 0.54, 0.84, -98.79, 149.63)"/><rect class="cls-3" x="140.91" y="127.83" width="148" height="148" transform="matrix(0.84, -0.54, 0.54, 0.84, -75.15, 149.04)"/><circle class="cls-4" cx="633.5" cy="302.5" r="77.5"/><circle class="cls-3" cx="656.5" cy="327.5" r="77.5"/><polygon class="cls-5" points="231.66 826.71 101.88 687.08 287.7 644.51 231.66 826.71"/><polygon class="cls-3" points="269.68 793.65 139.9 654.01 325.72 611.44 269.68 793.65"/><polygon class="cls-2" points="946.49 552.85 816.72 413.21 1002.53 370.64 946.49 552.85"/><polygon class="cls-3" points="984.51 519.79 854.74 380.15 1040.55 337.58 984.51 519.79"/><polyline class="cls-6" points="514.07 722.41 575.11 716.29 605.74 663.14 666.78 657.01 697.41 603.87 758.45 597.74 789.09 544.58"/><path class="cls-7" d="M272.88,379.39c30.2,9.3,18.43,47.52,48.63,56.82s42-28.93,72.17-19.63,18.43,47.53,48.63,56.83,42-28.93,72.17-19.63,18.43,47.53,48.64,56.83"/><rect class="cls-8" x="583.25" y="850.12" width="148" height="148" transform="translate(340.97 -164.89) rotate(19.23)"/><rect class="cls-3" x="621.75" y="833.88" width="148" height="148" transform="translate(337.77 -178.47) rotate(19.23)"/><polyline class="cls-9" points="591.32 35.84 629.51 83.84 690.78 80.81 728.98 128.81 790.25 125.79 828.45 173.79 889.73 170.77"/><path class="cls-10" d="M90.93,954.36c31.16-5.21,37.76,34.24,68.93,29s24.57-44.66,55.73-49.87,37.77,34.24,68.93,29,24.58-44.66,55.75-49.88,37.76,34.25,68.93,29"/></g></g></svg>