<svg xmlns="http://www.w3.org/2000/svg" viewBox="0 0 304.63 86"><defs><style>.cls-1{fill:#fff;stroke:#ca7cd8;stroke-width:4px;}.cls-2{fill:none;}</style></defs><g id="Layer_2" data-name="Layer 2"><g id="Layer_1-2" data-name="Layer 1"><g id="Rectangle_2" data-name="Rectangle 2"><path class="cls-1" d="M43.67,14.5h217A29.5,29.5,0,0,1,290.17,44h0a29.5,29.5,0,0,1-29.5,29.5h-217A29.5,29.5,0,0,1,14.17,44h0A29.5,29.5,0,0,1,43.67,14.5Z"/></g><g id="Rectangle_2-2" data-name="Rectangle 2"><path class="cls-1" d="M45.3,12.5h217A29.5,29.5,0,0,1,291.8,42h0a29.5,29.5,0,0,1-29.5,29.5H45.3A29.5,29.5,0,0,1,15.8,42h0A29.5,29.5,0,0,1,45.3,12.5Z"/></g><rect class="cls-2" width="304.63" height="86"/></g></g></svg>