<svg xmlns="http://www.w3.org/2000/svg" viewBox="0 0 178 45"><defs><style>.cls-1{fill:#fff;}.cls-2{fill:none;stroke:#0b9b3d;stroke-width:4px;}</style></defs><g id="Layer_2" data-name="Layer 2"><g id="Layer_1-2" data-name="Layer 1"><g id="Rectangle_13" data-name="Rectangle 13"><path class="cls-1" d="M19.5,6h134A19.5,19.5,0,0,1,173,25.5h0A19.5,19.5,0,0,1,153.5,45H19.5A19.5,19.5,0,0,1,0,25.5H0A19.5,19.5,0,0,1,19.5,6Z"/><path class="cls-2" d="M19.5,8h134A17.51,17.51,0,0,1,171,25.5h0A17.51,17.51,0,0,1,153.5,43H19.5A17.51,17.51,0,0,1,2,25.5H2A17.51,17.51,0,0,1,19.5,8Z"/></g><g id="Rectangle_14" data-name="Rectangle 14"><path class="cls-1" d="M24.5,0h134A19.5,19.5,0,0,1,178,19.5h0A19.5,19.5,0,0,1,158.5,39H24.5A19.5,19.5,0,0,1,5,19.5H5A19.5,19.5,0,0,1,24.5,0Z"/><path class="cls-2" d="M24.5,2h134A17.51,17.51,0,0,1,176,19.5h0A17.51,17.51,0,0,1,158.5,37H24.5A17.51,17.51,0,0,1,7,19.5H7A17.51,17.51,0,0,1,24.5,2Z"/></g></g></g></svg>