<svg xmlns="http://www.w3.org/2000/svg" viewBox="0 0 178.29 55"><defs><style>.cls-1,.cls-3{fill:#fff;}.cls-2,.cls-4{fill:none;}.cls-2,.cls-3{stroke:#0b9b3d;stroke-width:4px;}</style></defs><g id="Layer_2" data-name="Layer 2"><g id="Layer_1-2" data-name="Layer 1"><path class="cls-1" d="M19.79,11h134a19.5,19.5,0,0,1,19.5,19.5h0A19.5,19.5,0,0,1,153.79,50h-134A19.5,19.5,0,0,1,.29,30.5h0A19.5,19.5,0,0,1,19.79,11Z"/><path class="cls-2" d="M19.79,13h134a17.5,17.5,0,0,1,17.5,17.5h0A17.5,17.5,0,0,1,153.79,48h-134A17.51,17.51,0,0,1,2.29,30.5h0A17.51,17.51,0,0,1,19.79,13Z"/><path class="cls-3" d="M24.79,7h134a17.5,17.5,0,0,1,17.5,17.5h0A17.5,17.5,0,0,1,158.79,42h-134A17.51,17.51,0,0,1,7.29,24.5h0A17.51,17.51,0,0,1,24.79,7Z"/><rect class="cls-4" width="178.05" height="55"/></g></g></svg>