<svg xmlns="http://www.w3.org/2000/svg" viewBox="0 0 178.05 55"><defs><style>.cls-1,.cls-3{fill:#fff;}.cls-2,.cls-4{fill:none;}.cls-2,.cls-3{stroke:#0b9b3d;stroke-width:4px;}</style></defs><g id="Layer_2" data-name="Layer 2"><g id="Layer_1-2" data-name="Layer 1"><g id="Rectangle_13" data-name="Rectangle 13"><path class="cls-1" d="M21.93,9h134a19.5,19.5,0,0,1,19.5,19.5h0A19.5,19.5,0,0,1,155.93,48h-134A19.5,19.5,0,0,1,2.43,28.5h0A19.5,19.5,0,0,1,21.93,9Z"/><path class="cls-2" d="M21.93,11h134a17.51,17.51,0,0,1,17.5,17.5h0A17.51,17.51,0,0,1,155.93,46h-134A17.5,17.5,0,0,1,4.43,28.5h0A17.5,17.5,0,0,1,21.93,11Z"/></g><g id="Rectangle_14" data-name="Rectangle 14"><path class="cls-3" d="M22.93,10h134a17.51,17.51,0,0,1,17.5,17.5h0A17.51,17.51,0,0,1,156.93,45h-134A17.5,17.5,0,0,1,5.43,27.5h0A17.5,17.5,0,0,1,22.93,10Z"/></g><rect class="cls-4" width="178.05" height="55"/></g></g></svg>